<svg id="visual" viewBox="0 0 540 960" width="540" height="960" xmlns="http://www.w3.org/2000/svg" xmlns:xlink="http://www.w3.org/1999/xlink" version="1.1"><rect x="0" y="0" width="540" height="960" fill="#101010"></rect><defs><linearGradient id="grad1_0" x1="0%" y1="0%" x2="100%" y2="100%"><stop offset="30%" stop-color="#101010" stop-opacity="1"></stop><stop offset="70%" stop-color="#101010" stop-opacity="1"></stop></linearGradient></defs><defs><linearGradient id="grad2_0" x1="0%" y1="0%" x2="100%" y2="100%"><stop offset="30%" stop-color="#101010" stop-opacity="1"></stop><stop offset="70%" stop-color="#101010" stop-opacity="1"></stop></linearGradient></defs><g transform="translate(540, 0)"><path d="M0 189C-23.7 184.9 -47.3 180.8 -71.6 172.8C-95.8 164.8 -120.6 152.9 -133.6 133.6C-146.7 114.4 -147.9 87.8 -155.2 64.3C-162.5 40.8 -175.7 20.4 -189 0L0 0Z" fill="#6544DB"></path></g><g transform="translate(0, 960)"><path d="M0 -189C19.7 -168.3 39.4 -147.6 55.5 -134C71.6 -120.3 84.2 -113.6 106.1 -106.1C128 -98.5 159.2 -90.1 174.6 -72.3C190 -54.5 189.5 -27.3 189 0L0 0Z" fill="#6544DB"></path></g></svg>