<svg id="visual" viewBox="0 0 960 540" width="960" height="540" xmlns="http://www.w3.org/2000/svg" xmlns:xlink="http://www.w3.org/1999/xlink" version="1.1"><rect x="0" y="0" width="960" height="540" fill="#101010"></rect><defs><linearGradient id="grad1_0" x1="43.8%" y1="100%" x2="100%" y2="0%"><stop offset="14.444444444444446%" stop-color="#101010" stop-opacity="1"></stop><stop offset="85.55555555555554%" stop-color="#101010" stop-opacity="1"></stop></linearGradient></defs><defs><linearGradient id="grad2_0" x1="0%" y1="100%" x2="56.3%" y2="0%"><stop offset="14.444444444444446%" stop-color="#101010" stop-opacity="1"></stop><stop offset="85.55555555555554%" stop-color="#101010" stop-opacity="1"></stop></linearGradient></defs><g transform="translate(960, 540)"><path d="M-189 0C-186.4 -37.2 -183.9 -74.3 -163.7 -94.5C-143.5 -114.7 -105.7 -117.9 -75.5 -130.8C-45.3 -143.7 -22.6 -166.3 0 -189L0 0Z" fill="#6544DB"></path></g><g transform="translate(0, 0)"><path d="M189 0C186.7 37.6 184.4 75.3 163.7 94.5C143 113.7 103.8 114.6 73.5 127.3C43.2 140 21.6 164.5 0 189L0 0Z" fill="#6544DB"></path></g></svg>